<svg xmlns="http://www.w3.org/2000/svg" width="46.176" height="34.632" viewBox="0 0 46.176 34.632">
    <defs>
        <style>
            .cls-1{fill:#5e5e5e}
        </style>
    </defs>
    <path id="chart-bar-regular" d="M35.786 89.974h2.02a1.241 1.241 0 0 0 1.154-1.154V68.04a1.241 1.241 0 0 0-1.154-1.154h-2.02a1.241 1.241 0 0 0-1.154 1.154v20.779a1.241 1.241 0 0 0 1.154 1.155zm-17.316 0h2.02a1.241 1.241 0 0 0 1.154-1.154V70.926a1.241 1.241 0 0 0-1.154-1.154h-2.02a1.241 1.241 0 0 0-1.154 1.154v17.893a1.241 1.241 0 0 0 1.154 1.155zm8.658 0h2.02a1.241 1.241 0 0 0 1.152-1.155V76.7a1.241 1.241 0 0 0-1.154-1.154h-2.02a1.241 1.241 0 0 0-1.152 1.154v12.119a1.241 1.241 0 0 0 1.154 1.155zm17.6 4.329H4.329v-28.86A1.443 1.443 0 0 0 2.886 64H1.443A1.443 1.443 0 0 0 0 65.443v30.3a2.886 2.886 0 0 0 2.886 2.886h41.847a1.443 1.443 0 0 0 1.443-1.443v-1.44a1.443 1.443 0 0 0-1.443-1.446zM9.812 89.974h2.02a1.241 1.241 0 0 0 1.154-1.154v-6.35a1.241 1.241 0 0 0-1.154-1.154h-2.02a1.241 1.241 0 0 0-1.154 1.154v6.349a1.241 1.241 0 0 0 1.154 1.155z" class="cls-1" transform="translate(0 -64)"/>
</svg>
