<svg xmlns="http://www.w3.org/2000/svg" width="109.668" height="87.751" viewBox="0 0 109.668 87.751">
  <g id="Cloud-sun" transform="translate(0)">
    <path id="cloud-sun-solid" d="M98.564,55.811a9.242,9.242,0,0,0,.137-.96A10.933,10.933,0,0,0,81.891,45.6,19.169,19.169,0,0,0,45.238,53.48c0,.514.12.994.154,1.491a16.411,16.411,0,0,0,1.217,32.78H93.218a16.411,16.411,0,0,0,5.346-31.941ZM24.812,51.938A19.188,19.188,0,1,1,55.776,30.416a24.589,24.589,0,0,1,5.261-1.285L66.143,13.9a2.6,2.6,0,0,0-3.29-3.29L47.808,15.628,40.7,1.439a2.592,2.592,0,0,0-4.644,0L28.959,15.628,13.9,10.607a2.61,2.61,0,0,0-3.29,3.29l5.021,15.045L1.439,36.053a2.592,2.592,0,0,0,0,4.644l14.188,7.094L10.607,62.836a2.6,2.6,0,0,0,3.29,3.29l13.04-4.335a22.145,22.145,0,0,1,4.044-5.74,18.9,18.9,0,0,1-6.169-4.113ZM23.99,38.367a14.4,14.4,0,0,0,11.635,14.1,21.983,21.983,0,0,1,4.318-2A24.7,24.7,0,0,1,51.493,32.472a14.385,14.385,0,0,0-27.5,5.895Z" transform="translate(0 0)" fill="#ffe200"/>
    <path id="cloud-sun-solid-2" data-name="cloud-sun-solid" d="M114.742,73.089a10.933,10.933,0,0,0-16.81-9.253,19.169,19.169,0,0,0-36.653,7.882c0,.514.12.994.154,1.491a16.411,16.411,0,0,0,1.217,32.78h46.609a16.454,16.454,0,0,0,16.45-16.45A17.4,17.4,0,0,0,122.48,79.29C119.5,75.487,114.742,73.277,114.742,73.089Z" transform="translate(-16.041 -18.238)" fill="#fff"/>
  </g>
</svg>
