<svg xmlns="http://www.w3.org/2000/svg" width="26.121" height="32.488" viewBox="0 0 26.121 32.488">
    <defs>
        <style>
            .cls-1{fill:#555}
        </style>
    </defs>
    <path id="search-location-solid" d="M25.766 28.088l-5.087-6.326a1.116 1.116 0 0 0-.867-.444h-.832a15.282 15.282 0 0 0 2.245-8.118c0-7.29-4.75-13.2-10.612-13.2S0 5.907 0 13.2s4.75 13.2 10.613 13.2a9.338 9.338 0 0 0 6.531-2.8v1.034a1.729 1.729 0 0 0 .357 1.079l5.087 6.326a1.06 1.06 0 0 0 1.73 0l1.444-1.8a1.8 1.8 0 0 0 .005-2.157zm-15.153-5.755c-4.058 0-7.347-4.083-7.347-9.136s3.283-9.136 7.347-9.136 7.347 4.083 7.347 9.136-3.284 9.136-7.347 9.136zm0-15.226c-2.081 0-3.767 2.1-3.767 4.685 0 2.091 2.462 5.9 3.405 7.288a.416.416 0 0 0 .723 0c.943-1.384 3.405-5.2 3.405-7.288 0-2.588-1.687-4.685-3.767-4.685zm0 6.092a1.4 1.4 0 0 1-1.224-1.523 1.4 1.4 0 0 1 1.224-1.523 1.4 1.4 0 0 1 1.224 1.523 1.4 1.4 0 0 1-1.223 1.524z" class="cls-1"/>
</svg>
