<svg xmlns="http://www.w3.org/2000/svg" viewBox="0 0 46.752 68.004">
    <defs>
        <style>
            .cls-1{fill:#fff}
        </style>
    </defs>
    <path id="tint-solid" d="M27.257 2.934a4.034 4.034 0 0 0-7.762 0C13.283 23.887 0 29.581 0 44.349A23.5 23.5 0 0 0 23.376 68a23.5 23.5 0 0 0 23.376-23.651c0-14.843-13.254-20.367-19.5-41.416zM23.376 59.5A14.894 14.894 0 0 1 8.5 44.627a2.125 2.125 0 0 1 4.25 0 10.638 10.638 0 0 0 10.626 10.626 2.125 2.125 0 1 1 0 4.25z" class="cls-1"/>
</svg>
