<svg xmlns="http://www.w3.org/2000/svg" width="109.668" height="87.751" viewBox="0 0 109.668 87.751">
    <defs>
        <style>
            .cls-1{fill:#ffe200}
        </style>
    </defs>
    <path id="cloud-sun-solid" d="M98.564 55.811a9.242 9.242 0 0 0 .137-.96 10.933 10.933 0 0 0-16.81-9.251 19.169 19.169 0 0 0-36.653 7.88c0 .514.12.994.154 1.491a16.411 16.411 0 0 0 1.217 32.78h46.609a16.411 16.411 0 0 0 5.346-31.941zm-73.752-3.873a19.188 19.188 0 1 1 30.964-21.522 24.589 24.589 0 0 1 5.261-1.285L66.143 13.9a2.6 2.6 0 0 0-3.29-3.29l-15.045 5.018L40.7 1.439a2.592 2.592 0 0 0-4.644 0l-7.097 14.189L13.9 10.607a2.61 2.61 0 0 0-3.29 3.29l5.021 15.045-14.192 7.111a2.592 2.592 0 0 0 0 4.644l14.188 7.094-5.02 15.045a2.6 2.6 0 0 0 3.29 3.29l13.04-4.335a22.145 22.145 0 0 1 4.044-5.74 18.9 18.9 0 0 1-6.169-4.113zm-.822-13.571a14.4 14.4 0 0 0 11.635 14.1 21.983 21.983 0 0 1 4.318-2 24.7 24.7 0 0 1 11.55-17.995 14.385 14.385 0 0 0-27.5 5.895z" class="cls-1"/>
</svg>
