<svg xmlns="http://www.w3.org/2000/svg" width="33.153" height="34.632" viewBox="0 0 33.153 34.632">
    <defs>
        <style>
            .cls-1{fill:#5e5e5e}
        </style>
    </defs>
    <path id="cog-solid" d="M51.373 29.576L48.4 27.859a13.449 13.449 0 0 0 0-4.9l2.974-1.718a.844.844 0 0 0 .384-.978 17.39 17.39 0 0 0-3.819-6.605.84.84 0 0 0-1.039-.158l-2.97 1.714a13.177 13.177 0 0 0-4.245-2.451V9.335a.837.837 0 0 0-.656-.817 17.553 17.553 0 0 0-7.625 0 .837.837 0 0 0-.656.817v3.435a13.593 13.593 0 0 0-4.248 2.451L23.535 13.5a.83.83 0 0 0-1.033.161 17.285 17.285 0 0 0-3.819 6.605.835.835 0 0 0 .384.978l2.974 1.718a13.449 13.449 0 0 0 0 4.9l-2.974 1.718a.844.844 0 0 0-.384.978 17.39 17.39 0 0 0 3.817 6.608.84.84 0 0 0 1.033.161l2.974-1.718a13.177 13.177 0 0 0 4.245 2.451v3.435a.837.837 0 0 0 .656.817 17.553 17.553 0 0 0 7.625 0 .837.837 0 0 0 .656-.817V38.06a13.593 13.593 0 0 0 4.245-2.451l2.974 1.718a.83.83 0 0 0 1.033-.161 17.285 17.285 0 0 0 3.819-6.605.862.862 0 0 0-.387-.985zm-16.156 1.418a5.586 5.586 0 1 1 5.583-5.586 5.593 5.593 0 0 1-5.583 5.586z" class="cls-1" transform="translate(-18.644 -8.099)"/>
</svg>
