<svg xmlns="http://www.w3.org/2000/svg" width="35.632" height="35.632" viewBox="0 0 35.632 35.632">
    <defs>
        <style>
            .cls-1{fill:#5e5e5e}
        </style>
    </defs>
    <path id="question-circle-regular_1_" d="M25.816 8a17.816 17.816 0 1 0 17.816 17.816A17.819 17.819 0 0 0 25.816 8zm0 32.184a14.368 14.368 0 1 1 14.368-14.368 14.359 14.359 0 0 1-14.368 14.368zm7.7-18.333c0 4.817-5.2 4.891-5.2 6.671v.455a.862.862 0 0 1-.862.862h-3.278a.862.862 0 0 1-.862-.862v-.622c0-2.568 1.947-3.594 3.418-4.419 1.262-.707 2.035-1.188 2.035-2.125 0-1.239-1.58-2.061-2.858-2.061-1.666 0-2.435.789-3.516 2.153a.863.863 0 0 1-1.2.153l-2-1.516a.864.864 0 0 1-.19-1.175 8.075 8.075 0 0 1 7.225-3.893c3.529-.001 7.292 2.751 7.292 6.378zm-4.683 12.011a3.017 3.017 0 1 1-3.017-3.017 3.021 3.021 0 0 1 3.017 3.017z" class="cls-1" data-name="question-circle-regular (1)" transform="translate(-8 -8)"/>
</svg>
