<svg xmlns="http://www.w3.org/2000/svg" viewBox="0 0 16.32 32.64">
    <defs>
        <style>
            .cls-1{fill:#fff}
        </style>
    </defs>
    <path id="thermometer-half-solid" d="M12.24 24.48a4.08 4.08 0 1 1-6.12-3.533V14.28a2.04 2.04 0 0 1 4.08 0v6.667a4.077 4.077 0 0 1 2.04 3.533zm2.04-5.4a8.16 8.16 0 0 1-6.12 13.56H8.1a8.16 8.16 0 0 1-6.06-13.556V6.12a6.12 6.12 0 0 1 12.24 0zm-1.02 5.4a5.922 5.922 0 0 0-2.04-4.24V6.12a3.06 3.06 0 0 0-6.12 0v14.121a5.934 5.934 0 0 0-2.04 4.213 5.121 5.121 0 0 0 5.064 5.126h.036a5.106 5.106 0 0 0 5.1-5.1z" class="cls-1"/>
</svg>
