<svg xmlns="http://www.w3.org/2000/svg" width="22.87" height="32.356" viewBox="0 0 22.87 32.356">
    <defs>
        <style>
            .cls-1{fill:none;stroke:#fff;stroke-width:2px}
        </style>
    </defs>
    <path id="tint-solid" d="M12.167 1.309a1.8 1.8 0 0 0-3.465 0C5.929 10.663 0 13.2 0 19.8a10.491 10.491 0 0 0 10.435 10.556A10.491 10.491 0 0 0 20.87 19.8c0-6.626-5.916-9.091-8.7-18.487zm-1.732 25.252a6.648 6.648 0 0 1-6.64-6.64.949.949 0 0 1 1.9 0 4.749 4.749 0 0 0 4.743 4.743.949.949 0 0 1 0 1.9z" class="cls-1" transform="translate(1 1)"/>
</svg>
