<svg xmlns="http://www.w3.org/2000/svg" width="37.615" height="32.908" viewBox="0 0 37.615 32.908">
    <defs>
        <style>
            .cls-1{fill:#fff}
        </style>
    </defs>
    <path id="wind-solid" d="M11.512 48.491H1.175A1.179 1.179 0 0 0 0 49.667v2.351a1.179 1.179 0 0 0 1.175 1.175h10.447a2.454 2.454 0 0 1 2.454 1.954 2.355 2.355 0 0 1-4.555 1.139 1.161 1.161 0 0 0-1.121-.742H5.995A1.169 1.169 0 0 0 4.827 56.9a7.053 7.053 0 0 0 13.914-2.277 7.208 7.208 0 0 0-7.229-6.132zM1.175 46.14h24.684a7.054 7.054 0 1 0-6.92-8.4 1.158 1.158 0 0 0 1.161 1.348h2.41a1.154 1.154 0 0 0 1.117-.742 2.355 2.355 0 0 1 4.555 1.139 2.448 2.448 0 0 1-2.454 1.954H1.175A1.179 1.179 0 0 0 0 42.614v2.351a1.179 1.179 0 0 0 1.175 1.175zm28.21 2.351H17.9a9.286 9.286 0 0 1 2.924 4.7h8.559a3.526 3.526 0 1 1-3.056 5.26 1.216 1.216 0 0 0-1.065-.558h-2.481a1.177 1.177 0 0 0-1.124 1.55 8.219 8.219 0 1 0 7.728-10.954z" class="cls-1" transform="translate(0 -32.038)"/>
</svg>
